<?xml version="1.0" encoding="utf-8"?>
<!-- Generator: Adobe Illustrator 21.0.2, SVG Export Plug-In . SVG Version: 6.00 Build 0)  -->
<svg version="1.1" id="Ebene_1" xmlns="http://www.w3.org/2000/svg" xmlns:xlink="http://www.w3.org/1999/xlink" x="0px" y="0px"
	 viewBox="0 0 400 434.5" style="enable-background:new 0 0 400 560;" xml:space="preserve">
<style type="text/css">
	.st0{fill:#575756;}
	.st1{fill:#A3A3A2;}
	.st2{fill:#7E7E7C;}
	.st3{fill:#80807F;}
</style>
<g>
	<g>
		<g>
			<g>
				<path class="st1" d="M172.8467,433.1279c0.1579,0.0146,0.2998,0.0292,0.4434,0.0571c9.2174,0.736,18.2634,0.6568,27.2934,0.2501
					c0.8006-3.6583,1.6432-7.3017,2.8022-10.8386c16.4901-50.7517,65.2047-83.297,118.4922-79.1105
					c12.9473,1.0082,25.2214,4.245,36.5257,9.1457c5.7726-7.188,11.0609-14.747,15.8623-22.6782
					c-15.362-7.3942-32.2677-12.2463-50.2735-13.654c-65.8764-5.1654-126.138,35.0606-146.5584,97.8654
					C175.4338,420.3532,173.991,426.704,172.8467,433.1279"/>
			</g>
		</g>
		<g>
			<g>
				<path class="st2" d="M137.2798,427.0332c1.4574-8.1667,3.3715-16.2411,5.9163-24.0859
					c25.5503-78.6376,101.0582-129.0454,183.6117-122.5661c22.4208,1.7443,43.8272,7.7103,63.5057,17.1778
					c1.6142-4.052,3.2426-8.1169,4.5859-12.3181c1.6579-5.0019,3.0305-10.1246,4.2875-15.3047
					c-21.8629-10.0106-45.4428-16.4051-70.136-18.3352c-95.8856-7.5229-183.5973,51.0516-213.3211,142.4362
					c-2.5435,7.9033-4.6301,15.9615-6.231,24.1574C118.4308,421.8106,127.7901,424.6318,137.2798,427.0332"/>
			</g>
		</g>
		<g>
			<g>
				<path class="st1" d="M394.9141,285.241c1.7003-5.2239,3.145-10.5754,4.4162-15.9766
					c-35.782-21.6862-58.4469-62.2049-54.9879-106.7186c0.7142-9.0311,2.4866-17.9413,5.2576-26.4721
					c4.4164-13.625,11.2474-25.858,19.7931-36.4815c-5.4599-8.2252-11.4185-16.0978-17.9917-23.486
					c-12.8609,14.4472-22.965,31.6526-29.266,51.0441c-3.4725,10.695-5.6585,21.8281-6.5599,33.1379
					c-4.529,58.1677,26.5662,110.9766,74.7805,137.1127C391.97,293.393,393.5707,289.3847,394.9141,285.241"/>
			</g>
		</g>
		<g>
			<g>
				<path class="st3" d="M358.8028,352.1749c5.6455-7.1229,10.8607-14.6049,15.5769-22.4496
					c-61.0182-32.4955-100.4307-99.0011-94.7004-172.2596c1.1151-14.175,3.8441-28.166,8.2164-41.555
					c8.0173-24.6861,20.9502-46.6075,37.4547-64.8693c-7.1015-5.7156-14.5907-10.9178-22.3637-15.7116
					c-17.9766,20.527-32.1532,44.8194-41.012,72.1348c-5.0161,15.4552-8.2031,31.5532-9.5173,47.8645
					C245.9414,238.5835,290.0968,314.1922,358.8028,352.1749"/>
			</g>
		</g>
		<g>
			<g>
				<path class="st0" d="M205.5573,174.9066c6.6449-20.4555,10.9031-41.8049,12.5756-63.4618
					c2.9427-37.5469-1.8585-73.9581-13.0762-107.6112c-12.1599-0.8501-24.1356-0.5574-35.8537,0.5853
					c12.3473,32.2674,17.9636,67.6924,15.091,104.3758c-1.4865,18.963-5.2019,37.7107-11.0186,55.6231
					c-26.3219,80.9746-92.084,139.5358-171.2663,158.7196c5.8315,10.5109,12.6753,20.3707,20.1644,29.7519
					C107.1268,328.1463,176.8766,263.205,205.5573,174.9066"/>
			</g>
		</g>
		<g>
			<g>
				<path class="st1" d="M110.0858,18.8677c23.0923,37.3462,62.9042,63.6681,109.9335,67.3703
					c39.6684,3.1137,77.2371-10.3325,105.3604-35.1616c-7.2887-5.9089-15.0487-11.2383-23.1069-16.1696
					c-22.0929,17.3562-50.3873,26.4872-80.1392,24.143c-35.6677-2.8066-66.2919-21.6846-85.3689-48.9506
					C127.619,12.429,118.7455,15.388,110.0858,18.8677"/>
			</g>
		</g>
		<g>
			<g>
				<path class="st2" d="M54.2404,51.7552c33.4819,54.96,91.7839,93.7713,160.663,99.1665
					c58.1313,4.5509,113.1628-15.2768,154.1894-51.8447c-5.4026-8.0176-11.2615-15.6983-17.6342-22.9286
					c-35.4396,32.3815-83.5107,49.9864-134.2696,46.0062c-60.0319-4.7076-110.7469-38.8464-139.3851-87.0475
					C69.5873,40.1514,61.7133,45.6958,54.2404,51.7552"/>
			</g>
		</g>
		<g>
			<g>
				<path class="st0" d="M398.2008,163.8748c-3.0013-11.4606-6.7167-22.6064-11.5031-33.274
					c-47.2428,40.6199-109.7052,62.5254-175.6385,57.36c-64.0339-5.0365-122.2806-34.6962-164.0358-83.525
					c-7.2172-8.4888-13.5474-17.4693-19.506-26.6863c-7.6734,8.8309-14.6622,18.2767-20.8213,28.3367
					c4.8029,6.7662,9.8745,13.3467,15.3339,19.7269c47.4286,55.4882,113.6487,89.2202,186.4566,94.9431
					C278.8511,226.2726,345.8423,204.7448,398.2008,163.8748"/>
			</g>
		</g>
	</g>
</g>
</svg>
